<svg xmlns="http://www.w3.org/2000/svg" width="46" height="39" viewBox="0 0 46 39" fill="none">
  <g clip-path="url(#clip0_9308_5155)">
    <path d="M6.92369 25.1204C8.1653 24.5871 9.53126 24.7416 10.5949 25.4113C9.45829 24.5656 7.91216 24.3297 6.51544 24.9288C4.43831 25.8204 3.4826 28.219 4.37944 30.2852C5.25822 32.3093 7.58724 33.2646 9.63347 32.4681C7.74073 33.0422 5.67327 32.1202 4.86925 30.2693C4.00619 28.2812 4.92524 25.9755 6.92236 25.1188L6.92369 25.1204Z" fill="#13341C"/>
    <path d="M42.942 30.6905C42.736 27.1276 39.6649 24.4024 36.0846 24.6037C35.5227 24.6359 34.982 24.7374 34.4694 24.8999L33.5753 22.7788L33.4814 22.8182L32.6673 21.0065C33.0364 20.8841 33.474 20.7808 34.0025 20.7094C35.3452 20.5277 37.5036 20.765 38.0787 20.9502C38.7872 21.1776 39.6898 21.7263 39.9856 21.8331C40.2814 21.94 40.9195 21.9381 40.9195 21.9381C40.9195 21.9381 39.4909 20.3751 38.9009 19.9455C38.3108 19.5159 36.6106 19.0642 35.1986 18.9198C34.6994 18.8677 33.8954 18.8389 33.0835 18.8986L32.1949 15.7353L28.8996 13.2355L29.5245 14.8084L28.9935 15.0331L29.2985 15.7115C29.241 15.7025 29.1834 15.695 29.1261 15.6845C28.7803 15.6261 28.9583 15.6849 28.7244 15.5875C28.7244 15.5875 28.706 15.6064 28.6776 15.6347C28.1997 15.2496 27.1628 14.31 26.8542 13.8234C26.4543 13.1932 25.8437 12.7168 25.6275 12.5929C25.514 12.0596 25.1456 10.4106 24.8328 9.87886C25.088 9.74311 25.347 9.61521 25.6124 9.49691C25.4926 9.10897 25.372 8.75819 25.2462 8.52903C25.1959 8.43736 25.093 8.33276 24.9536 8.21987C25.0147 8.09366 25.0881 7.96426 25.1825 7.84897C25.789 8.22069 26.3606 8.5545 26.5816 8.661C26.5816 8.661 26.972 8.5498 27.3527 7.98765C27.6801 7.50486 27.6556 7.36673 27.6392 7.2652L27.4289 7.24324L27.0303 7.01688C27.0303 7.01688 27.4881 6.21697 27.7252 5.06476C27.7252 5.06476 29.0176 5.23545 29.2836 5.24087C29.5451 5.24583 29.8638 5.2344 29.8486 5.09277C29.8277 4.90585 27.7579 3.77648 27.6015 3.59627C27.178 3.10659 25.4356 2.39876 24.1085 3.13325C23.9051 3.2461 23.7376 3.37312 23.6008 3.50782C23.5537 3.48503 23.5223 3.49962 23.3825 3.66232C23.2835 3.77862 23.2206 3.93594 23.1896 4.10403C22.9201 4.72099 23.009 5.37537 23 5.74838C22.9935 5.9682 23.0754 6.27323 23.2754 6.53844L22.6881 6.88534C22.6718 6.88364 22.6588 6.8793 22.6502 6.87542C22.6539 6.88325 22.659 6.89124 22.6642 6.89923L22.6467 6.90932C22.4113 6.79685 22.1957 6.69686 22.0185 6.61578C21.7211 6.48045 21.3727 6.53346 21.1299 6.75095C20.3947 7.41018 18.8006 8.85276 17.6825 10.0098C17.6825 10.0098 16.9832 10.5268 15.5561 12.3056C15.0552 12.9297 14.9562 13.4483 14.7845 13.5719C14.6129 13.6955 13.6382 15.0001 13.9528 16.0744C14.0709 16.4771 14.4047 16.8233 14.7899 17.1063C13.8131 16.7526 11.4097 15.721 10.9571 15.6529C10.4543 15.578 10.2542 15.5437 10.006 15.5402C9.83859 15.5376 7.24589 14.8274 5.47588 14.4698C4.59606 14.2915 2.68447 14.4867 2.68447 14.4867C2.82115 14.5114 4.4789 15.3132 5.39287 15.6664C7.24093 16.3808 8.44029 17.1988 8.41518 17.2527C8.39754 17.2926 8.88086 17.7692 9.39155 18.256L7.54187 17.2703C7.42564 17.2075 7.2913 17.189 7.15976 17.2155L6.33343 17.3855C6.13144 17.427 5.96654 17.5722 5.87942 17.7612C5.66584 17.8134 5.51448 17.9436 5.45275 18.0042C5.38417 18.073 5.29375 18.4658 5.29248 18.564C5.29248 18.564 5.47123 18.7451 5.50357 18.7366C5.53427 18.7293 5.58875 18.437 5.71725 18.4683C5.74064 18.4738 5.76715 18.478 5.79218 18.4821L5.76672 19.0128C5.75368 19.2811 5.89455 19.5238 6.12192 19.6265L12.7625 22.6127L13.2206 22.5562L13.4937 22.1497C14.0373 22.5357 14.6351 22.9914 14.9776 23.3251C15.2386 23.5789 15.9168 23.9387 16.6261 24.2735C16.6646 24.4354 16.6583 24.6105 16.5398 24.7695C16.4164 24.9339 16.2668 25.2624 16.1294 25.6176C15.9456 25.7861 15.6231 26.1636 15.83 26.5055C15.7848 26.6662 15.7527 26.8014 15.7404 26.891L14.4753 27.0748C14.3958 26.7894 14.2981 26.5065 14.176 26.2271C12.7528 22.9498 8.93072 21.4364 5.63722 22.849C2.3452 24.2618 0.828237 28.0634 2.25134 31.3422C3.67459 34.6194 7.49664 36.1329 10.7901 34.7202C13.3234 33.6334 14.8033 31.133 14.7038 28.5438L16.8962 28.2259C16.9214 28.3 16.9681 28.369 17.0348 28.4191L17.7527 28.9723C17.919 29.0999 18.1541 29.0857 18.3027 28.9389L18.5601 28.6827C18.9436 29.0251 19.3632 29.3371 19.6912 29.5084C21.3428 30.3692 23.0108 29.6673 23.0108 29.6673C23.7828 29.5587 24.3132 29.7422 24.543 29.6351C24.8546 29.4903 25.3478 29.0979 25.7125 28.7456C25.9796 28.9269 26.2675 29.0374 26.5403 29.0346C27.1937 29.0299 27.9505 28.6798 28.1507 28.2538C28.5106 27.4883 28.4112 26.289 28.3355 25.709C28.5832 25.7319 28.8304 25.7309 28.9529 25.5754C29.198 25.2642 29.5428 25.1885 29.7317 24.8715C29.9205 24.5545 30.1032 23.4786 30.1655 23.1975C30.2279 22.915 30.2433 22.5099 30.2433 22.5099L30.0449 22.3447C30.5056 22.1917 31.1144 21.9394 31.4104 21.6857C31.5355 21.5781 31.6796 21.474 31.8473 21.3738L32.6541 23.1698L32.5396 23.219L33.4327 25.3354C31.2544 26.4786 29.8279 28.8118 29.9794 31.4199C30.1854 34.9827 33.2565 37.708 36.8368 37.5067C40.4171 37.3054 43.1526 34.2523 42.9466 30.6895L42.942 30.6905ZM16.1588 23.1416C15.7141 22.9119 14.9159 21.8795 14.0509 21.3154L14.2016 21.0913C15.0352 21.6268 16.2737 22.428 16.2769 22.4552C16.2985 22.6496 16.3071 22.9544 16.3096 23.2169C16.2512 23.1885 16.1986 23.1621 16.1588 23.1416ZM10.4394 33.9208C7.591 35.143 4.2837 33.8338 3.05241 30.9982C1.82113 28.1626 3.1334 24.873 5.98176 23.6508C8.83013 22.4285 12.1374 23.7378 13.3687 26.5734C13.4593 26.781 13.5332 26.9913 13.5966 27.202L13.3928 27.2314C13.3337 27.0375 13.2641 26.844 13.1807 26.6535C11.994 23.9209 8.80597 22.6599 6.06121 23.8364C3.3163 25.0143 2.05236 28.1853 3.23751 30.9177C4.42414 33.6503 7.6122 34.9113 10.357 33.7349C12.431 32.8445 13.6594 30.817 13.6243 28.7007L13.8265 28.6712C13.8733 30.8765 12.5981 32.9931 10.4379 33.9206L10.4394 33.9208ZM6.67601 28.7187C6.64143 29.5375 7.28203 30.2286 8.10343 30.2637C8.76985 30.2916 9.35188 29.88 9.56636 29.2886L13.2868 28.7489C13.3029 30.7172 12.1529 32.5965 10.2232 33.4245C7.64909 34.5293 4.66108 33.3458 3.54803 30.7833C2.43498 28.2208 3.62125 25.2488 6.19532 24.1439C8.76939 23.039 11.7574 24.2225 12.8704 26.785C12.9417 26.9489 13.0024 27.1132 13.0554 27.2796L9.30158 27.8233C9.04151 27.5175 8.65967 27.3168 8.22734 27.2985C7.40447 27.2632 6.71058 27.8999 6.67616 28.7172L6.67601 28.7187ZM25.4029 17.2252C24.6463 17.4307 23.6926 17.7155 22.9805 17.9675C21.8054 16.4726 19.8942 14.1545 19.8942 14.1545C19.8942 14.1545 20.1537 13.8777 20.4469 13.5791C21.0621 13.022 22.0544 12.2094 22.7007 11.7986C22.8884 12.2667 23.2237 13.0853 23.3488 13.2787C23.3746 13.3186 23.4081 13.3564 23.4447 13.393C23.5473 13.5139 23.7077 13.699 23.7976 13.7844L24.0496 14.0238C24.2121 14.1748 24.4226 14.3815 24.5764 14.557C24.6794 14.675 24.8503 14.8314 25.0667 14.9955C25.459 15.2972 25.9935 15.6272 26.5012 15.8128C27.287 16.1034 27.9427 16.3774 27.9427 16.3774C27.9427 16.3774 27.9427 16.3774 28.0462 16.275C28.0043 16.3183 27.9675 16.3547 27.9424 16.3804C27.777 16.5449 27.8185 16.5775 27.8413 16.6886C27.8641 16.7998 28.0689 16.7318 28.2573 16.8349C28.2898 16.8532 28.3234 16.876 28.3581 16.902C27.6011 16.7947 26.9716 16.8005 25.4029 17.2252ZM26.7919 28.1164C26.6003 28.1589 26.4024 28.104 26.2221 28.0092C26.27 27.8235 26.2935 27.6844 26.4467 27.3786C26.6224 27.029 27.2819 26.0624 27.6055 25.7744C27.6342 26.1588 27.6663 26.6687 27.6487 26.8948C27.5869 27.6586 27.4141 27.9802 26.7934 28.1165L26.7919 28.1164ZM34.314 27.4357C33.0582 28.1911 32.2526 29.5968 32.3442 31.1573C32.4723 33.3577 34.3305 35.0505 36.5293 35.0015C34.5519 34.8948 32.9281 33.3234 32.8119 31.3104C32.7302 29.8984 33.4104 28.6182 34.498 27.8676L35.3887 29.9778C35.1194 30.2343 34.9446 30.5885 34.9268 30.9889C34.8922 31.8077 35.5328 32.4988 36.3542 32.5339C37.1771 32.5692 37.871 31.9324 37.9054 31.1151C37.94 30.2964 37.2994 29.6052 36.478 29.5701C36.4661 29.5689 36.454 29.5706 36.442 29.5708L35.5117 27.3656C35.8296 27.2617 36.1674 27.1957 36.5167 27.177C37.8678 27.1006 39.0978 27.7117 39.8657 28.7037C39.0892 27.5216 37.718 26.7721 36.1996 26.8579C35.9075 26.8736 35.6255 26.9216 35.3543 26.9946L35.0229 26.2106C35.3889 26.1043 35.7704 26.0354 36.1681 26.0128C38.9682 25.8552 41.3677 27.9859 41.5291 30.7709C41.6905 33.5559 39.5516 35.9427 36.753 36.1005C33.9529 36.2581 31.5534 34.1274 31.392 31.3424C31.2769 29.3474 32.3397 27.5574 33.9819 26.6442L34.3168 27.4375L34.314 27.4357ZM36.7824 36.6369C33.684 36.811 31.0282 34.4539 30.8485 31.3706C30.7188 29.1417 31.9217 27.1442 33.7677 26.1421L33.847 26.3292C32.0778 27.2976 30.9281 29.2171 31.0518 31.359C31.2238 34.3298 33.7852 36.6026 36.7705 36.4345C39.7559 36.2665 42.0372 33.7202 41.8653 30.7494C41.6933 27.7786 39.1319 25.5058 36.1466 25.6739C35.7113 25.6984 35.29 25.7751 34.8897 25.8943L34.8106 25.7057C35.2326 25.5785 35.6754 25.4966 36.1349 25.47C39.2332 25.2959 41.8891 27.653 42.0688 30.7364C42.247 33.8196 39.881 36.4598 36.7825 36.6354L36.7824 36.6369Z" fill="#13341C"/>
  </g>
  <defs>
    <clipPath id="clip0_9308_5155">
      <rect width="41.8119" height="34.0928" fill="white" transform="translate(4.13281 0.580078) rotate(5.96045)"/>
    </clipPath>
  </defs>
</svg>