<svg width="80" height="541" viewBox="0 0 80 541" fill="none" xmlns="http://www.w3.org/2000/svg">
<g opacity="0.1">
<path d="M20.673 491.486C22.8982 491.268 25.1593 491.159 27.4563 491.159L29.3944 491.268H31.3324C33.7012 491.413 37.1826 491.486 41.7766 491.486C46.873 491.486 50.7492 491.595 53.4051 491.812L56.9583 492.139C62.7725 492.502 67.7254 493.989 71.817 496.601C73.3244 497.689 74.6523 499.321 75.8008 501.498C76.9493 503.674 77.8825 506.068 78.6003 508.68C79.3899 511.364 79.7847 514.52 79.7847 518.147C79.7847 519.816 79.7488 520.977 79.677 521.63C79.3899 525.184 78.6362 528.377 77.4159 531.206C76.1238 533.963 74.2575 535.994 71.817 537.3C68.5868 539.041 64.5312 539.984 59.6501 540.129L56.2046 540.347C55.6303 540.42 54.4459 540.456 52.6514 540.456C46.7654 540.819 41.1306 541 35.747 541C32.4451 541 29.1431 540.891 25.8412 540.674C22.2522 540.456 18.7708 539.839 15.3971 538.823C11.9516 537.735 8.93676 536.103 6.35264 533.927L5.06059 531.532C2.83537 526.889 1.72277 521.811 1.72277 516.297C1.72277 512.815 2.18934 509.55 3.1225 506.503C3.98387 503.384 5.27593 500.663 6.99868 498.342C9.29567 495.802 11.5568 494.134 13.782 493.336C16.079 492.465 18.376 491.849 20.673 491.486ZM32.4092 508.353L26.8102 508.789C24.8004 508.934 23.0417 509.442 21.5343 510.312C19.9552 511.11 18.8425 512.162 18.1965 513.468C17.9812 514.048 17.8735 514.629 17.8735 515.209C17.8735 516.95 18.4478 518.655 19.5962 520.324C20.3141 521.194 21.3549 522.065 22.7187 522.935C24.0108 523.734 25.3387 524.35 26.7026 524.785C29.8609 525.511 33.8807 525.874 38.7618 525.874C41.2023 525.874 43.0328 525.837 44.253 525.765H44.1454C45.581 525.475 47.4832 525.257 49.852 525.112L51.3594 525.003C54.9484 524.713 57.6043 524.314 59.3271 523.806H59.2194C60.655 523.153 61.7676 522.21 62.5572 520.977C63.275 519.671 63.6339 518.292 63.6339 516.841C63.6339 515.681 63.3827 514.52 62.8802 513.359C62.306 512.126 61.5164 511.074 60.5114 510.203C59.5783 509.478 58.7887 509.043 58.1427 508.897C57.4966 508.68 56.4917 508.571 55.1279 508.571C53.9076 508.571 53.0103 508.535 52.4361 508.462L51.0363 508.353L48.9906 508.244H47.4832L45.4374 508.136H40.2692L32.9475 508.353H32.4092Z" fill="#206545"/>
<path d="M5.16825 437.14C12.8488 436.778 19.9552 436.596 26.4872 436.596C38.9053 436.596 50.6057 437.213 61.5882 438.446C66.5411 439.027 70.7044 441.058 74.0781 444.54C77.38 447.95 79.2822 452.375 79.7847 457.816V457.708C79.9282 459.014 80 460.211 80 461.299C80 465.579 79.3181 469.678 77.9542 473.596C76.6622 477.513 74.6523 480.778 71.9246 483.39C69.197 485.929 65.8591 487.271 61.9112 487.416C56.6712 487.416 48.8111 487.344 38.3311 487.198L31.3324 487.09C23.7237 486.945 18.0888 486.872 14.428 486.872C9.69046 486.872 6.20908 486.908 3.98387 486.981V484.26L3.76852 477.731C3.76852 474.176 4.16332 471.057 4.95291 468.372C12.9924 468.662 19.1656 468.808 23.4724 468.808C33.8807 468.808 45.4015 468.336 58.035 467.393H57.9273C59.3629 466.958 60.4756 466.305 61.2651 465.434C61.983 464.563 62.3419 463.62 62.3419 462.605C62.3419 461.444 61.8753 460.356 60.9421 459.34C60.009 458.324 58.8246 457.635 57.389 457.272H57.4966C50.8928 456.982 40.4486 456.765 26.1642 456.619L19.2732 456.511C15.8277 456.511 11.0902 456.438 5.06059 456.293L4.73757 454.008C4.73757 452.992 4.6299 451.614 4.41455 449.872C4.12743 446.898 4.01976 445.121 4.09154 444.54C4.09154 441.421 4.45045 439.244 5.16825 438.011L5.16825 437.14Z" fill="#206545"/>
<path d="M57.712 388.292C62.0906 385.39 65.7874 383.068 68.8022 381.327C71.817 379.514 74.8677 378.026 77.9542 376.866V378.607C77.9542 379.477 78.026 381.436 78.1696 384.483C78.3131 387.53 78.3849 389.96 78.3849 391.774C78.3849 392.79 78.3131 394.313 78.1696 396.345L78.0619 398.195C67.4383 402.91 59.4706 407.118 54.1588 410.818H56.9583C61.4087 410.818 67.1512 410.564 74.1857 410.056H74.0781C74.5805 409.984 75.4419 409.948 76.6622 409.948C77.8107 412.414 78.3849 416.477 78.3849 422.136L78.2773 424.747L78.2773 430.515C78.2773 431.313 71.7811 431.712 58.7887 431.712C47.0166 431.712 35.2445 431.821 23.4724 432.038C11.6285 432.256 4.52222 432.582 2.15345 433.018L1.72276 430.08C1.14851 425.727 0.717827 422.136 0.430702 419.306C0.143577 416.477 1.43354e-05 413.575 1.42068e-05 410.6C1.40687e-05 407.408 0.143576 404.688 0.430701 402.439C0.93317 398.231 2.36879 394.313 4.73757 390.686C7.10634 386.986 10.0135 384.048 13.459 381.871C16.9045 379.622 20.4576 378.498 24.1184 378.498C27.6357 378.498 31.476 379.659 35.6393 381.98C38.2234 383.431 40.3769 385.354 42.0996 387.748C43.8223 390.142 44.8632 393.008 45.2221 396.345C48.6676 394.386 52.2566 392.101 55.9892 389.489C56.8506 388.981 57.4249 388.582 57.712 388.292ZM30.2557 403.962C29.9686 402.947 29.2508 402.149 28.1023 401.568C26.9538 400.988 25.59 400.698 24.0108 400.698C21.0678 400.698 19.1656 401.423 18.3042 402.874C17.7299 403.817 17.371 404.797 17.2275 405.812C17.0839 406.755 17.0121 407.844 17.0121 409.077L17.7658 413.756C19.9193 413.611 21.7497 413.539 23.2571 413.539C27.1333 413.539 29.502 413.43 30.3634 413.212C30.507 411.979 30.5787 410.455 30.5787 408.642C30.5787 406.973 30.4711 405.413 30.2557 403.962Z" fill="#206545"/>
<path d="M38.6541 323.213C38.6541 320.093 38.7977 316.575 39.0848 312.657L39.3001 309.175L39.4078 307.325L41.6689 307.107C42.4585 307.035 44.1813 306.89 46.8372 306.672C49.4213 306.454 51.6465 306.345 53.5128 306.345C57.1736 306.345 60.7986 306.636 64.3876 307.216C67.6178 307.724 70.3454 308.993 72.5706 311.025C74.7959 313.056 76.4827 315.632 77.6312 318.751C79.2104 324.047 80 328.944 80 333.442C80 336.924 79.4616 340.08 78.3849 342.91C75.8726 348.641 71.4939 352.377 65.249 354.118C63.3109 354.626 60.7986 355.061 57.712 355.424C58.5016 355.424 52.0772 355.823 38.4388 356.621C36.1418 356.621 34.3114 356.585 32.9475 356.512C26.4872 356.367 21.7497 356.005 18.7349 355.424C12.9924 354.409 8.7573 352.051 6.02962 348.351C4.01976 345.594 2.65591 341.821 1.9381 337.033C1.72276 335.365 1.61509 333.66 1.61509 331.919C1.61509 324.664 3.44551 318.715 7.10634 314.072C10.6954 309.429 15.8277 307.107 22.5034 307.107L25.9489 307.325H27.4563C27.528 307.833 27.5639 308.449 27.5639 309.175C27.5639 309.9 27.5639 310.553 27.5639 311.134L27.5639 316.357C27.5639 319.114 27.4204 321.762 27.1332 324.301C21.2472 326.042 18.3042 328.001 18.3042 330.177C18.3042 330.54 18.2683 330.939 18.1965 331.374C18.1247 331.81 18.0888 332.209 18.0888 332.572C18.0888 333.732 18.5195 334.748 19.3809 335.619C19.4527 335.691 20.3141 335.945 21.965 336.38C26.4872 337.759 33.1629 338.448 41.9919 338.448C46.3706 338.448 49.9955 338.303 52.8668 338.013C57.6761 337.505 60.7268 336.525 62.0188 335.074C62.4495 334.349 62.7367 333.769 62.8802 333.333C62.952 332.535 62.9161 331.592 62.7725 330.504C62.5572 329.343 62.2701 328.327 61.9112 327.457C61.4087 326.224 60.2602 325.426 58.4657 325.063C57.6043 324.845 56.4917 324.628 55.1279 324.41C53.764 324.192 52.9385 324.12 52.6514 324.192V326.804C52.795 329.488 52.5796 331.556 52.0054 333.007C50.498 333.152 48.6317 333.224 46.4065 333.224H45.2221C44.935 333.224 44.4684 333.224 43.8223 333.224C43.1045 333.152 41.7766 333.224 39.8385 333.442C39.8385 332.862 39.6949 331.628 39.4078 329.742C38.9053 326.84 38.6541 324.664 38.6541 323.213Z" fill="#206545"/>
<path d="M78.0619 256.983C78.5644 259.304 78.8156 261.807 78.8156 264.491C78.8156 267.684 78.4208 271.166 77.6312 274.938C76.2674 275.446 73.3961 276.244 69.0175 277.332C64.5671 278.421 61.624 279.291 60.1884 279.944L60.0807 282.121L60.1884 283.971C61.0498 284.261 63.1673 284.732 66.541 285.385C69.3405 285.893 71.6375 286.401 73.432 286.909C75.1548 287.417 76.734 288.142 78.1696 289.085C78.3131 289.811 78.3849 290.899 78.3849 292.35C78.3849 293.003 78.3131 294.417 78.1696 296.594C77.8825 302.906 77.7389 306.424 77.7389 307.15C77.38 307.15 76.5545 307.077 75.2624 306.932C73.8986 306.787 72.3912 306.569 70.7402 306.279L57.1736 303.885C46.0476 301.999 36.3571 300.221 28.1023 298.553C19.8475 296.812 11.1261 294.563 1.9381 291.806C1.79454 290.79 1.72276 289.412 1.72276 287.671L1.72276 287.018C1.72276 282.302 1.5433 277.695 1.1844 273.197C4.55811 272.327 7.89593 271.529 11.1979 270.803C14.428 270.078 17.3351 269.425 19.9193 268.844C29.8968 266.523 36.5366 264.963 39.8385 264.165L78.0619 256.983ZM46.4065 279.726C32.0503 281.323 24.8721 282.084 24.8721 282.012L23.7954 282.121C23.7954 282.121 24.6568 282.193 26.3795 282.338C31.7631 282.556 36.0341 282.882 39.1925 283.318L46.4065 284.297V279.726Z" fill="#206545"/>
<path d="M69.9865 207.622C70.8479 207.549 72.1041 207.513 73.755 207.513C75.2624 207.513 76.3391 207.658 76.9852 207.948C77.5594 208.166 77.9183 208.528 78.0619 209.036C78.2055 209.544 78.2772 210.415 78.2772 211.648V212.41L78.1696 214.151L78.2772 216.98C78.4208 221.478 78.4926 228.116 78.4926 236.895C78.4926 245.238 78.4567 251.876 78.3849 256.809H75.9085C64.0646 256.301 52.1489 256.047 40.1615 256.047C36.6442 256.047 30.5787 256.12 21.965 256.265H15.397C14.1768 256.338 11.9874 256.374 8.82908 256.374L1.83043 256.483C1.47152 255.467 1.1844 254.052 0.969052 252.239C0.681931 250.425 0.538371 248.611 0.538371 246.798C0.538371 244.766 0.681931 242.735 0.969051 240.704C1.25618 238.672 1.65097 237.04 2.15344 235.807C7.32168 235.952 11.4491 236.024 14.5357 236.024C18.8425 236.024 25.3028 235.952 33.9166 235.807C38.2234 235.734 44.576 235.698 52.9744 235.698H59.9731C59.9731 233.304 60.0807 230.365 60.2961 226.883L60.5114 221.116C60.7268 218.069 60.8344 215.203 60.8344 212.519C60.8344 210.632 60.7627 208.964 60.6191 207.513C62.2701 207.513 63.3468 207.549 63.8492 207.622H63.7416C65.6797 207.767 67.0794 207.803 67.9408 207.73L69.9865 207.622Z" fill="#206545"/>
<path d="M69.9865 157.461C70.8479 157.389 72.1041 157.353 73.755 157.353C75.2624 157.353 76.3391 157.498 76.9852 157.788C77.5594 158.006 77.9183 158.368 78.0619 158.876C78.2055 159.384 78.2772 160.254 78.2772 161.488V162.25L78.1696 163.991L78.2772 166.82C78.4208 171.318 78.4926 177.956 78.4926 186.735C78.4926 195.078 78.4567 201.716 78.3849 206.649H75.9085C64.0646 206.141 52.1489 205.887 40.1615 205.887C36.6442 205.887 30.5787 205.96 21.965 206.105H15.397C14.1768 206.177 11.9874 206.214 8.82908 206.214L1.83042 206.323C1.47152 205.307 1.18439 203.892 0.96905 202.078C0.681929 200.265 0.538369 198.451 0.538369 196.637C0.538369 194.606 0.681929 192.575 0.969049 190.543C1.25617 188.512 1.65097 186.88 2.15344 185.646C7.32167 185.791 11.4491 185.864 14.5357 185.864C18.8425 185.864 25.3028 185.791 33.9166 185.646C38.2234 185.574 44.576 185.538 52.9744 185.538H59.9731C59.9731 183.143 60.0807 180.205 60.2961 176.723L60.5114 170.955C60.7268 167.908 60.8344 165.043 60.8344 162.358C60.8344 160.472 60.7627 158.804 60.6191 157.353C62.2701 157.353 63.3468 157.389 63.8492 157.461H63.7416C65.6797 157.606 67.0794 157.643 67.9408 157.57L69.9865 157.461Z" fill="#206545"/>
<path d="M68.1561 106.539C71.8169 106.539 75.083 106.938 77.9542 107.736C77.9542 110.929 78.026 115.644 78.1696 121.883L78.2772 136.139C78.2772 142.596 78.0619 149.053 77.6312 155.509C75.3342 155.437 66.3975 155.546 50.821 155.836C41.9919 156.054 35.2086 156.162 30.4711 156.162C20.6371 156.162 11.485 155.908 3.01481 155.401L2.6918 145.824C2.26111 135.087 2.04577 126.889 2.04577 121.23C2.04577 116.37 2.22522 111.654 2.58412 107.084C4.09152 106.793 5.85016 106.648 7.86003 106.648C8.93675 106.648 10.6954 106.721 13.1359 106.866C15.4329 107.011 17.2275 107.084 18.5195 107.084C19.4527 111.436 19.9192 116.297 19.9192 121.666L20.0269 135.813C23.4006 136.175 26.2001 136.357 28.4253 136.357C30.148 136.357 31.6554 136.139 32.9475 135.704L32.0861 128.522C32.0861 127.506 32.1579 125.982 32.3015 123.951L32.4091 122.536C34.5626 122.174 36.8955 121.992 39.4078 121.992L48.0215 122.21C48.6676 124.531 48.9906 127.651 48.9906 131.569L48.8829 134.398C48.8829 134.906 48.9547 135.232 49.0982 135.377L54.6972 135.813C57.6402 135.813 60.0807 135.667 62.0188 135.377C62.0188 131.605 62.1265 127.941 62.3418 124.386C62.4136 123.153 62.4854 121.629 62.5572 119.816C62.629 118.002 62.6649 115.862 62.6649 113.395L62.4495 106.757C65.7514 106.612 67.6536 106.539 68.1561 106.539Z" fill="#206545"/>
<path d="M57.712 59.8063C62.0906 56.9043 65.7873 54.5828 68.8021 52.8417C71.8169 51.028 74.8676 49.5407 77.9542 48.3799V50.1211C77.9542 50.9917 78.026 52.9505 78.1696 55.9975C78.3131 59.0445 78.3849 61.4749 78.3849 63.2886C78.3849 64.3042 78.3131 65.8278 78.1696 67.8591L78.0619 69.7091C67.4383 74.4247 59.4706 78.6325 54.1588 82.3325H56.9583C61.4087 82.3325 67.1512 82.0785 74.1857 81.5707H74.078C74.5805 81.4981 75.4419 81.4619 76.6622 81.4619C77.8107 83.9285 78.3849 87.9912 78.3849 93.65L78.2772 96.2617V102.029C78.2772 102.827 71.7811 103.226 58.7887 103.226C47.0166 103.226 35.2445 103.335 23.4724 103.553C11.6285 103.77 4.52221 104.097 2.15344 104.532L1.72275 101.594C1.1485 97.2411 0.717812 93.65 0.430688 90.8206C0.143563 87.9912 1.28644e-07 85.0893 0 82.1148C-1.38057e-07 78.9227 0.143562 76.2021 0.430687 73.9531C0.933156 69.7454 2.36878 65.8278 4.73755 62.2004C7.10633 58.5004 10.0135 55.5622 13.459 53.3858C16.9044 51.1368 20.4576 50.0123 24.1184 50.0123C27.6357 50.0123 31.476 51.173 35.6393 53.4946C38.2234 54.9455 40.3768 56.8681 42.0996 59.2622C43.8223 61.6562 44.8632 64.5219 45.2221 67.8591C48.6676 65.9003 52.2566 63.615 55.9892 61.0033C56.8506 60.4955 57.4248 60.0965 57.712 59.8063ZM30.2557 75.4767C29.9686 74.461 29.2508 73.663 28.1023 73.0826C26.9538 72.5022 25.5899 72.212 24.0108 72.212C21.0677 72.212 19.1655 72.9375 18.3042 74.3884C17.7299 75.3316 17.371 76.311 17.2275 77.3266C17.0839 78.2698 17.0121 79.358 17.0121 80.5913L17.7658 85.2707C19.9192 85.1256 21.7497 85.053 23.2571 85.053C27.1332 85.053 29.502 84.9442 30.3634 84.7265C30.5069 83.4932 30.5787 81.9697 30.5787 80.156C30.5787 78.4874 30.4711 76.9276 30.2557 75.4767Z" fill="#206545"/>
<path d="M78.4926 31.6672C78.2772 33.4084 78.1696 35.077 78.1696 36.6731C78.1696 37.7613 78.2413 39.2485 78.3849 41.1348L78.4926 45.7053C78.4926 47.1563 78.3849 48.8249 78.1696 50.7111C73.0013 48.97 64.1005 45.6328 51.467 40.6995L40.2692 36.2378C37.3979 36.9633 34.5985 37.8701 31.8708 38.9583C29.0713 40.0466 25.7694 41.425 21.965 43.0936C17.1557 45.0524 13.4589 46.5396 10.8748 47.5553C8.29071 48.4984 5.56304 49.3327 2.69179 50.0582C2.76357 48.6798 2.6559 46.5396 2.36877 43.6377C2.08165 41.3161 1.93809 39.6113 1.93809 38.523C1.93809 35.9839 2.40466 33.88 3.33782 32.2114C5.99372 31.5584 9.29565 30.579 13.2436 29.2732C17.1916 27.8947 20.7088 26.5889 23.7954 25.3556C23.0776 24.9928 19.8116 23.8321 13.9973 21.8733C7.53701 19.6968 4.01974 18.4635 3.44549 18.1733C2.6559 14.1832 2.2611 10.2293 2.2611 6.31168C2.2611 3.9176 2.40466 1.8137 2.69179 0C9.15208 1.74115 15.397 3.88132 21.4266 6.4205C27.3845 8.95969 34.8856 12.4057 43.93 16.7586C50.9645 20.2409 57.1377 23.1428 62.4495 25.4644C67.6895 27.7859 73.0372 29.8535 78.4926 31.6672Z" fill="#206545"/>
</g>
</svg>
