<svg xmlns="http://www.w3.org/2000/svg" width="18" height="20" viewBox="0 0 18 20" fill="none">
  <g clip-path="url(#clip0_9645_20773)">
    <path fill-rule="evenodd" clip-rule="evenodd" d="M2.57118 17.6633C-1.49023 14.0774 1.13653 6.09365 7.38039 7.09812V7.83756C2.10716 7.58804 -0.21406 13.988 2.57118 17.6633ZM13.9603 3.81352C14.6018 4.33514 15.4866 4.71992 16.7063 4.79336V5.51775C15.3566 5.26412 14.5012 4.5817 13.9603 3.81352ZM12.2672 0C12.2663 0.267311 12.3003 0.554466 12.3434 0.81676H9.85426V13.4267C9.85426 14.0081 9.79553 14.5256 9.67852 14.9797C8.66485 17.253 5.79488 16.956 5.00179 15.396C6.18246 16.1482 8.12394 15.9484 8.92084 14.1629C9.03696 13.7097 9.09569 13.1911 9.09569 12.6099V0H12.2674H12.2672Z" fill="#00F7EF"/>
    <path fill-rule="evenodd" clip-rule="evenodd" d="M13.0266 0.816406V0.8326C13.0275 1.12454 13.1116 5.34633 17.4659 5.60976C17.4659 9.53733 17.468 5.60976 17.468 8.87178C17.1409 8.89163 14.6018 8.70483 13.0219 7.27088L13.017 13.6211C13.056 16.4965 11.4828 19.3165 8.5375 19.8847C7.71235 20.0437 6.96925 20.0617 5.722 19.7843C-1.46335 17.5975 0.924224 6.75428 8.13894 7.91475C8.13894 11.4153 8.14096 7.91384 8.14096 11.4153C5.16047 10.9692 4.16339 13.492 4.95559 15.2982C5.6765 16.9427 8.64398 17.2994 9.67917 14.9793C9.79641 14.5252 9.85491 14.0075 9.85491 13.4263V0.816406H13.0266Z" fill="black"/>
    <path fill-rule="evenodd" clip-rule="evenodd" d="M7.37952 7.83721C7.62543 7.84816 7.87851 7.87279 8.13742 7.91453C8.13742 11.4151 8.13944 7.91361 8.13944 11.4151C5.15896 10.969 4.16188 13.4918 4.95407 15.298C4.96864 15.3308 4.98433 15.3637 5.00092 15.3954C4.64652 15.1698 4.36138 14.8598 4.1955 14.4812C3.40443 12.6748 4.40039 10.1522 7.38087 10.5981C7.38087 7.38971 7.37997 10.0596 7.37997 7.83698L7.37952 7.83721ZM16.7056 5.51739C16.9428 5.56187 17.1959 5.59357 17.4644 5.60976C17.4644 9.53733 17.4665 5.60976 17.4665 8.87178C17.1394 8.89163 14.6003 8.70483 13.0204 7.27088L13.0155 13.6211C13.0545 16.4965 11.4813 19.3165 8.53599 19.8847C7.71084 20.0437 6.96773 20.0617 5.72049 19.7843C4.31632 19.3571 3.27934 18.5981 2.57031 17.663C3.20201 18.2213 3.99487 18.6734 4.96281 18.9685C6.20872 19.2447 6.95204 19.2269 7.77719 19.0677C10.7225 18.4993 12.2957 15.6796 12.2576 12.805L12.2616 6.45389C13.8415 7.88784 16.3806 8.07555 16.7088 8.05457C16.7088 5.02519 16.7059 8.19575 16.7059 5.51716L16.7056 5.51739ZM13.0251 0.816406V0.8326C13.0251 1.00435 13.0554 2.52861 13.9596 3.81317C12.8697 2.92593 12.4813 1.64434 12.3425 0.816406H13.0251Z" fill="#FF004F"/>
  </g>
  <defs>
    <clipPath id="clip0_9645_20773">
      <rect width="16.8421" height="20" fill="white" transform="translate(0.625)"/>
    </clipPath>
  </defs>
</svg>